<svg width="500" height="89" viewBox="0 0 500 89" fill="none" xmlns="http://www.w3.org/2000/svg">
<path d="M68.6358 70H48.4118C47.6011 70 47.0038 69.8293 46.6198 69.488C46.2784 69.104 46.1078 68.5067 46.1078 67.696V60.208C46.1078 59.3973 46.2784 58.8213 46.6198 58.48C47.0038 58.096 47.6011 57.904 48.4118 57.904H65.6278C66.1824 57.904 66.5878 57.7333 66.8438 57.392C67.1424 57.008 67.2918 56.56 67.2918 56.048C67.2918 55.3227 67.1424 54.7893 66.8438 54.448C66.5878 54.1067 66.1824 53.9147 65.6278 53.872L56.0278 52.528C53.0411 52.1013 50.6304 51.12 48.7958 49.584C47.0038 48.048 46.1078 45.488 46.1078 41.904V35.184C46.1078 31.5573 47.2811 28.784 49.6278 26.864C51.9744 24.9013 55.2171 23.92 59.3558 23.92H77.2758C78.0864 23.92 78.6624 24.112 79.0037 24.496C79.3877 24.8373 79.5798 25.4133 79.5798 26.224V33.84C79.5798 34.6507 79.3877 35.248 79.0037 35.632C78.6624 35.9733 78.0864 36.144 77.2758 36.144H62.3638C61.8091 36.144 61.3824 36.336 61.0838 36.72C60.7851 37.0613 60.6358 37.5093 60.6358 38.064C60.6358 38.6187 60.7851 39.088 61.0838 39.472C61.3824 39.856 61.8091 40.0693 62.3638 40.112L71.8998 41.392C74.8864 41.8187 77.2971 42.8 79.1318 44.336C80.9664 45.872 81.8838 48.432 81.8838 52.016V58.736C81.8838 62.3627 80.6891 65.1573 78.2998 67.12C75.9531 69.04 72.7318 70 68.6358 70ZM73.8198 29.68H59.6118C57.6491 29.68 56.0704 30.2347 54.8758 31.344C53.6811 32.4107 53.0838 33.7973 53.0838 35.504V40.752C53.0838 42.5013 53.4251 43.7173 54.1078 44.4C54.8331 45.04 55.7504 45.4667 56.8598 45.68L70.3638 48.432C71.5584 48.688 72.4971 49.2 73.1798 49.968C73.9051 50.6933 74.2678 52.0587 74.2678 54.064V57.776C74.2678 59.4827 73.6704 60.8907 72.4758 62C71.3238 63.0667 69.7664 63.6 67.8038 63.6H51.8678V64.24H67.8038C69.9798 64.24 71.7078 63.6427 72.9878 62.448C74.2678 61.2107 74.9078 59.6533 74.9078 57.776V54.064C74.9078 51.8453 74.4811 50.3093 73.6278 49.456C72.8171 48.6027 71.7718 48.048 70.4918 47.792L56.9878 45.04C56.0064 44.8693 55.2171 44.4853 54.6198 43.888C54.0224 43.2907 53.7238 42.2453 53.7238 40.752V35.504C53.7238 34.0107 54.2571 32.7733 55.3238 31.792C56.3904 30.8107 57.8198 30.32 59.6118 30.32H73.8198V29.68ZM127.925 57.904C127.925 59.8667 127.626 61.6587 127.029 63.28C126.474 64.8587 125.45 66.224 123.957 67.376C122.506 68.4853 120.479 69.36 117.877 70C115.317 70.64 112.053 70.96 108.085 70.96C104.117 70.96 100.831 70.64 98.2288 70C95.6261 69.36 93.5781 68.4853 92.0848 67.376C90.6341 66.224 89.6101 64.8587 89.0128 63.28C88.4581 61.6587 88.1808 59.8667 88.1808 57.904V36.08C88.1808 34.1173 88.4581 32.3467 89.0128 30.768C89.6101 29.1467 90.6341 27.76 92.0848 26.608C93.5781 25.456 95.6261 24.56 98.2288 23.92C100.831 23.28 104.117 22.96 108.085 22.96C112.053 22.96 115.317 23.28 117.877 23.92C120.479 24.56 122.506 25.456 123.957 26.608C125.45 27.76 126.474 29.1467 127.029 30.768C127.626 32.3467 127.925 34.1173 127.925 36.08V57.904ZM120.949 56.432V37.552C120.949 34.992 120.031 32.9227 118.197 31.344C116.362 29.7227 112.949 28.912 107.957 28.912C102.965 28.912 99.5728 29.7227 97.7808 31.344C95.9888 32.9227 95.0928 34.992 95.0928 37.552V56.432C95.0928 58.992 95.9888 61.0827 97.7808 62.704C99.5728 64.2827 102.965 65.072 107.957 65.072C112.949 65.072 116.362 64.2827 118.197 62.704C120.031 61.0827 120.949 58.992 120.949 56.432ZM95.7328 56.432V37.552C95.7328 35.1627 96.5861 33.2427 98.2928 31.792C99.9994 30.2987 103.221 29.552 107.957 29.552C112.693 29.552 115.935 30.2987 117.685 31.792C119.434 33.2427 120.309 35.1627 120.309 37.552V56.432C120.309 58.8213 119.434 60.7627 117.685 62.256C115.935 63.7067 112.693 64.432 107.957 64.432C103.221 64.432 99.9994 63.7067 98.2928 62.256C96.5861 60.7627 95.7328 58.8213 95.7328 56.432ZM102.709 55.6C102.709 56.4533 103.029 57.1787 103.669 57.776C104.309 58.3307 105.781 58.608 108.085 58.608C110.389 58.608 111.861 58.3307 112.501 57.776C113.141 57.1787 113.461 56.4533 113.461 55.6V38.384C113.461 37.5733 113.141 36.8907 112.501 36.336C111.861 35.7387 110.389 35.44 108.085 35.44C105.781 35.44 104.309 35.7387 103.669 36.336C103.029 36.8907 102.709 37.5733 102.709 38.384V55.6ZM157.576 30.32C159.838 30.32 161.502 30.9387 162.568 32.176C163.678 33.4133 164.232 35.0133 164.232 36.976V41.456C164.232 43.8027 163.784 45.616 162.888 46.896C161.992 48.176 160.222 48.816 157.576 48.816H143.624V30.32H157.576ZM150.536 35.44V43.632H155.336C156.446 43.632 157.192 43.3547 157.576 42.8C157.96 42.2027 158.152 41.4773 158.152 40.624V38.448C158.152 37.5947 157.96 36.8907 157.576 36.336C157.192 35.7387 156.446 35.44 155.336 35.44H150.536ZM143.624 64.24V49.392H161.736C164.168 49.392 165.96 49.9253 167.112 50.992C168.264 52.016 168.84 53.5733 168.84 55.664V64.24H169.48V55.664C169.48 53.4453 168.84 51.76 167.56 50.608C166.28 49.4133 164.339 48.816 161.736 48.816H161.032C162.568 48.3467 163.592 47.4933 164.104 46.256C164.616 44.976 164.872 43.3547 164.872 41.392V36.976C164.872 34.8853 164.275 33.1573 163.08 31.792C161.886 30.384 160.051 29.68 157.576 29.68H142.984V64.24H143.624ZM148.232 70H138.376C137.566 70 136.968 69.8293 136.584 69.488C136.243 69.104 136.072 68.5067 136.072 67.696V26.224C136.072 25.4133 136.243 24.8373 136.584 24.496C136.968 24.112 137.566 23.92 138.376 23.92H159.688C164.467 23.92 167.752 24.9227 169.544 26.928C171.379 28.8907 172.296 31.4507 172.296 34.608V37.552C172.296 39.344 172.019 40.88 171.464 42.16C170.952 43.3973 170.035 44.2933 168.712 44.848C171.016 45.104 172.872 46.0427 174.28 47.664C175.731 49.2853 176.456 51.44 176.456 54.128V67.696C176.456 68.5067 176.264 69.104 175.88 69.488C175.539 69.8293 174.963 70 174.152 70H164.232C163.422 70 162.824 69.8293 162.44 69.488C162.099 69.104 161.928 68.5067 161.928 67.696V57.904C161.928 56.9653 161.736 56.2827 161.352 55.856C161.011 55.3867 160.392 55.152 159.496 55.152H150.536V67.696C150.536 68.5067 150.344 69.104 149.96 69.488C149.619 69.8293 149.043 70 148.232 70ZM203.457 70H193.089C192.279 70 191.681 69.8293 191.297 69.488C190.956 69.104 190.785 68.5067 190.785 67.696V36.272H181.377C180.567 36.272 179.969 36.1013 179.585 35.76C179.244 35.376 179.073 34.7787 179.073 33.968V26.224C179.073 25.4133 179.244 24.8373 179.585 24.496C179.969 24.112 180.567 23.92 181.377 23.92H215.169C215.98 23.92 216.556 24.112 216.897 24.496C217.281 24.8373 217.473 25.4133 217.473 26.224V33.968C217.473 34.7787 217.281 35.376 216.897 35.76C216.556 36.1013 215.98 36.272 215.169 36.272H205.761V67.696C205.761 68.5067 205.569 69.104 205.185 69.488C204.844 69.8293 204.268 70 203.457 70ZM197.953 64.24H198.593V30.32H211.713V29.68H184.833V30.32H197.953V64.24ZM255.697 70H226.001C225.191 70 224.593 69.8293 224.209 69.488C223.868 69.104 223.697 68.5067 223.697 67.696V26.224C223.697 25.4133 223.868 24.8373 224.209 24.496C224.593 24.112 225.191 23.92 226.001 23.92H255.697C256.508 23.92 257.084 24.112 257.425 24.496C257.809 24.8373 258.001 25.4133 258.001 26.224V33.712C258.001 34.5227 257.809 35.12 257.425 35.504C257.084 35.8453 256.508 36.016 255.697 36.016H238.033V40.944H250.513C251.324 40.944 251.9 41.136 252.241 41.52C252.625 41.8613 252.817 42.4373 252.817 43.248V50.096C252.817 50.9067 252.625 51.504 252.241 51.888C251.9 52.2293 251.324 52.4 250.513 52.4H238.033V57.904H255.697C256.508 57.904 257.084 58.096 257.425 58.48C257.809 58.8213 258.001 59.3973 258.001 60.208V67.696C258.001 68.5067 257.809 69.104 257.425 69.488C257.084 69.8293 256.508 70 255.697 70ZM252.241 63.6H231.313V47.024H247.057V46.384H231.313V30.32H252.241V29.68H230.673V64.24H252.241V63.6ZM266.852 70C266.042 70 265.444 69.8293 265.06 69.488C264.719 69.104 264.548 68.5067 264.548 67.696V60.08C264.548 59.2693 264.719 58.6933 265.06 58.352C265.444 57.968 266.042 57.776 266.852 57.776H273.188V36.272H266.852C266.042 36.272 265.444 36.1013 265.06 35.76C264.719 35.376 264.548 34.7787 264.548 33.968V26.224C264.548 25.4133 264.719 24.8373 265.06 24.496C265.444 24.112 266.042 23.92 266.852 23.92H294.116C294.927 23.92 295.503 24.112 295.844 24.496C296.228 24.8373 296.42 25.4133 296.42 26.224V33.968C296.42 34.7787 296.228 35.376 295.844 35.76C295.503 36.1013 294.927 36.272 294.116 36.272H287.908V57.776H294.116C294.927 57.776 295.503 57.968 295.844 58.352C296.228 58.6933 296.42 59.2693 296.42 60.08V67.696C296.42 68.5067 296.228 69.104 295.844 69.488C295.503 69.8293 294.927 70 294.116 70H266.852ZM290.66 64.24V63.6H280.868V30.32H290.66V29.68H270.308V30.32H280.228V63.6H270.308V64.24H290.66ZM343.362 57.904C343.362 59.8667 343.064 61.6587 342.466 63.28C341.912 64.8587 340.888 66.224 339.394 67.376C337.944 68.4853 335.917 69.36 333.314 70C330.754 70.64 327.49 70.96 323.522 70.96C319.554 70.96 316.269 70.64 313.666 70C311.064 69.36 309.016 68.4853 307.522 67.376C306.072 66.224 305.048 64.8587 304.45 63.28C303.896 61.6587 303.618 59.8667 303.618 57.904V36.08C303.618 34.1173 303.896 32.3467 304.45 30.768C305.048 29.1467 306.072 27.76 307.522 26.608C309.016 25.456 311.064 24.56 313.666 23.92C316.269 23.28 319.554 22.96 323.522 22.96C327.49 22.96 330.754 23.28 333.314 23.92C335.917 24.56 337.944 25.456 339.394 26.608C340.888 27.76 341.912 29.1467 342.466 30.768C343.064 32.3467 343.362 34.1173 343.362 36.08V57.904ZM336.386 56.432V37.552C336.386 34.992 335.469 32.9227 333.634 31.344C331.8 29.7227 328.386 28.912 323.394 28.912C318.402 28.912 315.01 29.7227 313.218 31.344C311.426 32.9227 310.53 34.992 310.53 37.552V56.432C310.53 58.992 311.426 61.0827 313.218 62.704C315.01 64.2827 318.402 65.072 323.394 65.072C328.386 65.072 331.8 64.2827 333.634 62.704C335.469 61.0827 336.386 58.992 336.386 56.432ZM311.17 56.432V37.552C311.17 35.1627 312.024 33.2427 313.73 31.792C315.437 30.2987 318.658 29.552 323.394 29.552C328.13 29.552 331.373 30.2987 333.122 31.792C334.872 33.2427 335.746 35.1627 335.746 37.552V56.432C335.746 58.8213 334.872 60.7627 333.122 62.256C331.373 63.7067 328.13 64.432 323.394 64.432C318.658 64.432 315.437 63.7067 313.73 62.256C312.024 60.7627 311.17 58.8213 311.17 56.432ZM318.146 55.6C318.146 56.4533 318.466 57.1787 319.106 57.776C319.746 58.3307 321.218 58.608 323.522 58.608C325.826 58.608 327.298 58.3307 327.938 57.776C328.578 57.1787 328.898 56.4533 328.898 55.6V38.384C328.898 37.5733 328.578 36.8907 327.938 36.336C327.298 35.7387 325.826 35.44 323.522 35.44C321.218 35.44 319.746 35.7387 319.106 36.336C318.466 36.8907 318.146 37.5733 318.146 38.384V55.6ZM365.846 70H352.918C352.107 70 351.51 69.8293 351.126 69.488C350.784 69.104 350.614 68.5067 350.614 67.696V54.704C350.614 53.8933 350.784 53.3173 351.126 52.976C351.51 52.592 352.107 52.4 352.918 52.4H365.846C366.656 52.4 367.232 52.592 367.574 52.976C367.958 53.3173 368.15 53.8933 368.15 54.704V67.696C368.15 68.5067 367.958 69.104 367.574 69.488C367.232 69.8293 366.656 70 365.846 70ZM359.062 64.24H359.702V58.16H359.062V64.24ZM382.536 50.608C382.536 49.456 382.622 48.3893 382.792 47.408C383.006 46.4267 383.262 45.5093 383.56 44.656L387.656 34.16C388.083 33.0933 388.552 32.1973 389.064 31.472C389.576 30.704 390.472 30.32 391.752 30.32H398.024C399.219 30.32 400.072 30.704 400.584 31.472C401.096 32.1973 401.587 33.1147 402.056 34.224L406.472 44.656C406.771 45.5093 407.006 46.4267 407.176 47.408C407.39 48.3893 407.496 49.456 407.496 50.608V52.592H382.536V50.608ZM392.776 37.36L389.768 47.088H399.816L396.808 37.36C396.638 36.976 396.446 36.6987 396.232 36.528C396.062 36.3573 395.848 36.272 395.592 36.272H393.992C393.736 36.272 393.502 36.3573 393.288 36.528C393.118 36.6987 392.947 36.976 392.776 37.36ZM407.496 64.24H408.136V50.608C408.136 49.4133 408.03 48.3253 407.816 47.344C407.646 46.32 407.39 45.3387 407.048 44.4L402.632 33.968C402.12 32.7307 401.566 31.7067 400.968 30.896C400.414 30.0853 399.432 29.68 398.024 29.68H391.752C390.302 29.68 389.278 30.0853 388.68 30.896C388.083 31.7067 387.55 32.7093 387.08 33.904L382.984 44.4C382.643 45.3387 382.366 46.32 382.152 47.344C381.982 48.3253 381.896 49.4133 381.896 50.608V64.24H382.536V53.232H407.496V64.24ZM389.128 67.696C389.128 68.5067 388.936 69.104 388.552 69.488C388.211 69.8293 387.635 70 386.824 70H377.416C376.606 70 376.008 69.8293 375.624 69.488C375.283 69.104 375.112 68.5067 375.112 67.696V50.8C375.112 49.52 375.304 48.048 375.688 46.384C376.115 44.72 376.755 42.7787 377.608 40.56L383.176 26.032C383.432 25.3067 383.816 24.7733 384.328 24.432C384.883 24.0907 385.587 23.92 386.44 23.92H403.656C404.467 23.92 405.128 24.0907 405.64 24.432C406.195 24.7733 406.6 25.3067 406.856 26.032L412.424 40.56C413.278 42.7787 413.896 44.72 414.28 46.384C414.707 48.048 414.92 49.52 414.92 50.8V67.696C414.92 68.5067 414.728 69.104 414.344 69.488C414.003 69.8293 413.427 70 412.616 70H402.952C402.099 70 401.459 69.8293 401.032 69.488C400.648 69.104 400.456 68.5067 400.456 67.696V58.736H389.128V67.696ZM424.102 70C423.292 70 422.694 69.8293 422.31 69.488C421.969 69.104 421.798 68.5067 421.798 67.696V60.08C421.798 59.2693 421.969 58.6933 422.31 58.352C422.694 57.968 423.292 57.776 424.102 57.776H430.438V36.272H424.102C423.292 36.272 422.694 36.1013 422.31 35.76C421.969 35.376 421.798 34.7787 421.798 33.968V26.224C421.798 25.4133 421.969 24.8373 422.31 24.496C422.694 24.112 423.292 23.92 424.102 23.92H451.366C452.177 23.92 452.753 24.112 453.094 24.496C453.478 24.8373 453.67 25.4133 453.67 26.224V33.968C453.67 34.7787 453.478 35.376 453.094 35.76C452.753 36.1013 452.177 36.272 451.366 36.272H445.158V57.776H451.366C452.177 57.776 452.753 57.968 453.094 58.352C453.478 58.6933 453.67 59.2693 453.67 60.08V67.696C453.67 68.5067 453.478 69.104 453.094 69.488C452.753 69.8293 452.177 70 451.366 70H424.102ZM447.91 64.24V63.6H438.118V30.32H447.91V29.68H427.558V30.32H437.478V63.6H427.558V64.24H447.91Z" fill="white"/>
<line x1="5.42592e-09" y1="2.5" x2="500" y2="2.5" stroke="#EC6E00" stroke-width="5"/>
<line x1="4.51926e-09" y1="86.5" x2="500" y2="86.5" stroke="#EC6E00" stroke-width="5"/>
</svg>
